HIERARCHY
ROOT Hips
{
	OFFSET 0.000000 0.000000 0.000000
	CHANNELS 6 Xposition Yposition Zposition Zrotation Yrotation Xrotation 
	JOINT LHipJoint
	{
		OFFSET 0.000000 0.000000 0.000000
		CHANNELS 3 Zrotation Yrotation Xrotation
		JOINT LeftUpLeg
		{
			OFFSET 1.363060 -1.794630 0.839290
			CHANNELS 3 Zrotation Yrotation Xrotation
			JOINT LeftLeg
			{
				OFFSET 2.448110 -6.726130 0.000000
				CHANNELS 3 Zrotation Yrotation Xrotation
				JOINT LeftFoot
				{
					OFFSET 2.562200 -7.039590 0.000000
					CHANNELS 3 Zrotation Yrotation Xrotation
					JOINT LeftToeBase
					{
						OFFSET 0.157640 -0.433110 2.322550
						CHANNELS 3 Zrotation Yrotation Xrotation
						End Site
						{
							OFFSET 0.000000 0.000000 0.000000
						}
					}
				}
			}
		}
	}
	JOINT RHipJoint
	{
		OFFSET 0.000000 0.000000 0.000000
		CHANNELS 3 Zrotation Yrotation Xrotation
		JOINT RightUpLeg
		{
			OFFSET -1.305520 -1.794630 0.839290
			CHANNELS 3 Zrotation Yrotation Xrotation
			JOINT RightLeg
			{
				OFFSET -2.542530 -6.985550 0.000000
				CHANNELS 3 Zrotation Yrotation Xrotation
				JOINT RightFoot
				{
					OFFSET -2.568260 -7.056230 0.000000
					CHANNELS 3 Zrotation Yrotation Xrotation
					JOINT RightToeBase
					{
						OFFSET -0.164730 -0.452590 2.363150
						CHANNELS 3 Zrotation Yrotation Xrotation
						End Site
						{
							OFFSET 0.000000 0.000000 0.000000
						}
					}
				}
			}
		}
	}
	JOINT LowerBack
	{
		OFFSET 0.000000 0.000000 0.000000
		CHANNELS 3 Zrotation Yrotation Xrotation
		JOINT Spine
		{
			OFFSET 0.028270 2.035590 -0.193380
			CHANNELS 3 Zrotation Yrotation Xrotation
			JOINT Spine1
			{
				OFFSET 0.056720 2.048850 -0.042750
				CHANNELS 3 Zrotation Yrotation Xrotation
				JOINT Neck
				{
					OFFSET 0.000000 0.000000 0.000000
					CHANNELS 3 Zrotation Yrotation Xrotation
					JOINT Neck1
					{
						OFFSET -0.054170 1.746240 0.172020
						CHANNELS 3 Zrotation Yrotation Xrotation
						JOINT Head
						{
							OFFSET 0.104070 1.761360 -0.123970
							CHANNELS 3 Zrotation Yrotation Xrotation
							End Site
							{
								OFFSET 0.000000 0.000000 0.000000
							}
						}
					}
				}
				JOINT LeftShoulder
				{
					OFFSET 0.000000 0.000000 0.000000
					CHANNELS 3 Zrotation Yrotation Xrotation
					JOINT LeftArm
					{
						OFFSET 3.362410 1.200890 -0.311210
						CHANNELS 3 Zrotation Yrotation Xrotation
						JOINT LeftForeArm
						{
							OFFSET 4.983000 -0.000000 -0.000000
							CHANNELS 3 Zrotation Yrotation Xrotation
							JOINT LeftHand
							{
								OFFSET 3.483560 -0.000000 -0.000000
								CHANNELS 3 Zrotation Yrotation Xrotation
								JOINT LeftFingerBase
								{
									OFFSET 0.000000 0.000000 0.000000
									CHANNELS 3 Zrotation Yrotation Xrotation
									JOINT LeftHandIndex1
									{
										OFFSET 0.715260 -0.000000 -0.000000
										CHANNELS 3 Zrotation Yrotation Xrotation
										End Site
										{
											OFFSET 0.000000 0.000000 0.000000
										}
									}
								}
								JOINT LThumb
								{
									OFFSET 0.000000 0.000000 0.000000
									CHANNELS 3 Zrotation Yrotation Xrotation
									End Site
									{
										OFFSET 0.000000 0.000000 0.000000
									}
								}
							}
						}
					}
				}
				JOINT RightShoulder
				{
					OFFSET 0.000000 0.000000 0.000000
					CHANNELS 3 Zrotation Yrotation Xrotation
					JOINT RightArm
					{
						OFFSET -3.136600 1.374050 -0.404650
						CHANNELS 3 Zrotation Yrotation Xrotation
						JOINT RightForeArm
						{
							OFFSET -5.241900 -0.000000 -0.000000
							CHANNELS 3 Zrotation Yrotation Xrotation
							JOINT RightHand
							{
								OFFSET -3.444170 -0.000000 -0.000000
								CHANNELS 3 Zrotation Yrotation Xrotation
								JOINT RightFingerBase
								{
									OFFSET 0.000000 0.000000 0.000000
									CHANNELS 3 Zrotation Yrotation Xrotation
									JOINT RightHandIndex1
									{
										OFFSET -0.622530 -0.000000 -0.000000
										CHANNELS 3 Zrotation Yrotation Xrotation
										End Site
										{
											OFFSET 0.000000 0.000000 0.000000
										}
									}
								}
								JOINT RThumb
								{
									OFFSET 0.000000 0.000000 0.000000
									CHANNELS 3 Zrotation Yrotation Xrotation
									End Site
									{
										OFFSET 0.000000 0.000000 0.000000
									}
								}
							}
						}
					}
				}
			}
		}
	}
}
MOTION
Frames: 4
Frame Time: 0.033333
-2.200916 16.774833 23.269543 2.195747 7.449387 9.004413 -2.908008 5.228992 -7.370035 -19.377973 -2.122190 -3.573007 -10.959896 -12.059469 -29.936878 0.590888 12.109977 27.682621 0.000000 0.000000 0.000000 13.098052 3.254304 -4.715060 0.942132 -4.211062 -0.044611 2.190414 -28.909118 45.491323 15.940107 -25.918424 3.692696 0.000000 0.000000 0.000000 -7.406060 -1.463055 19.105114 3.676024 -1.583138 -5.362688 2.427801 -0.912690 -6.233826 -2.580990 0.637035 -0.684024 5.229879 -0.228244 6.472153 0.000000 0.000000 0.000000 9.128083 13.084183 7.322347 -71.891203 -6.093199 24.509822 -22.304678 -77.070612 0.627691 -0.177097 -14.224404 0.310218 -0.168451 -14.233404 0.000000 0.000000 0.000000 0.000000 0.000000 0.000000 0.000000 -4.412493 -18.264915 5.113009 67.085827 6.208958 20.417685 26.024608 68.020965 0.340785 0.550493 10.894673 0.169034 0.544478 10.899147 0.000000 0.000000 0.000000 0.000000 0.000000 0.000000 0.000000 
-2.217129 16.798032 23.462491 2.503597 7.220245 9.241232 -2.479832 5.160235 -7.775779 -20.181014 -1.818530 -2.952402 -10.517929 -11.766275 -29.200130 0.403012 11.022938 25.291722 0.000000 0.000000 0.000000 13.123948 3.199541 -4.393960 0.739508 -4.163883 -0.138976 1.890980 -28.729438 45.321289 16.256874 -27.371228 5.822300 0.000000 0.000000 0.000000 -7.593790 -1.321441 19.356823 3.436674 -1.651566 -5.055934 2.476640 -0.838829 -6.988029 -3.088281 0.696522 0.268500 5.293400 -0.273220 6.897356 0.000000 0.000000 0.000000 9.025733 13.875508 7.105573 -71.788919 -6.167361 25.277054 -22.963311 -76.712908 0.660186 -0.416299 -14.129719 0.326762 -0.413284 -14.139607 0.000000 0.000000 0.000000 0.000000 0.000000 0.000000 0.000000 -3.755803 -19.260377 4.692395 66.294007 6.272419 20.724244 26.871506 67.073120 0.341664 0.680198 10.738332 0.169561 0.675486 10.742895 0.000000 0.000000 0.000000 0.000000 0.000000 0.000000 0.000000 
-2.230067 16.824880 23.654969 2.795899 6.976455 9.481205 -2.082163 5.127174 -8.183023 -20.959161 -1.539991 -2.403310 -10.089066 -11.417501 -28.333765 0.243874 9.927554 22.854621 0.000000 0.000000 0.000000 13.166109 3.069307 -4.014006 0.536302 -4.079446 -0.316650 1.570124 -28.507642 45.125080 16.523111 -28.826878 7.938686 0.000000 0.000000 0.000000 -7.779032 -1.174083 19.557753 3.239359 -1.708741 -4.806408 2.504220 -0.760250 -7.652619 -3.488939 0.747145 1.121546 5.321160 -0.309612 7.239971 0.000000 0.000000 0.000000 8.909098 14.576634 6.916168 -71.692025 -6.250528 25.975041 -23.529737 -76.381226 0.689115 -0.616808 -14.049990 0.341475 -0.618632 -14.060581 0.000000 0.000000 0.000000 0.000000 0.000000 0.000000 0.000000 -3.216061 -20.115046 4.320005 65.622123 6.299934 21.067743 27.495963 66.456183 0.344446 0.782996 10.648479 0.171008 0.779288 10.653125 0.000000 0.000000 0.000000 0.000000 0.000000 0.000000 0.000000 
-2.238535 16.854857 23.846267 3.072656 6.722838 9.722824 -1.719523 5.131263 -8.587842 -21.707710 -1.290035 -1.929026 -9.688970 -11.015735 -27.339235 0.111884 8.835000 20.390989 0.000000 0.000000 0.000000 13.221725 2.865034 -3.578810 0.331204 -3.960073 -0.574296 1.228033 -28.245177 44.908326 16.732219 -30.268065 10.023243 0.000000 0.000000 0.000000 -7.954960 -1.021436 19.706357 3.075114 -1.756094 -4.597507 2.506888 -0.678997 -8.237466 -3.793718 0.791400 1.882212 5.328160 -0.338823 7.520832 0.000000 0.000000 0.000000 8.782835 15.192351 6.750000 -71.599141 -6.344577 26.610227 -24.011648 -76.076157 0.714796 -0.782477 -13.985409 0.354521 -0.788432 -13.996564 0.000000 0.000000 0.000000 0.000000 0.000000 0.000000 0.000000 -2.789632 -20.842035 3.992116 65.074146 6.282240 21.466036 27.917471 66.177558 0.349667 0.864789 10.627839 0.173644 0.861880 10.632581 0.000000 0.000000 0.000000 0.000000 0.000000 0.000000 0.000000 
